{
  "accessors": [
    {
      "bufferView": 1,
      "componentType": 5126,
      "count": 2451,
      "max": [
        222.60000610351562,
        35.785919189453125,
        8
      ],
      "min": [
        -222.60000610351562,
        -35.785919189453125,
        -8
      ],
      "type": "VEC3"
    },
    {
      "bufferView": 1,
      "byteOffset": 29412,
      "componentType": 5126,
      "count": 2451,
      "max": [
        1,
        1,
        1
      ],
      "min": [
        -1,
        -1,
        -1
      ],
      "type": "VEC3"
    },
    {
      "bufferView": 0,
      "componentType": 5125,
      "count": 5412,
      "max": [
        2450
      ],
      "min": [
        0
      ],
      "type": "SCALAR"
    }
  ],
  "asset": {
    "extras": {
      "author": "djvivid (https://sketchfab.com/djvivid)",
      "license": "CC-BY-4.0 (http://creativecommons.org/licenses/by/4.0/)",
      "source": "https://sketchfab.com/models/787cbab2fb4d4c15838ddf3f87786392",
      "title": "Expanse Logo Text Bev Ext Trippled"
    },
    "generator": "Sketchfab-3.54.8-rc1",
    "version": "2.0"
  },
  "bufferViews": [
    {
      "buffer": 0,
      "byteLength": 21648,
      "byteOffset": 0,
      "name": "floatBufferViews",
      "target": 34963
    },
    {
      "buffer": 0,
      "byteLength": 58824,
      "byteOffset": 21648,
      "byteStride": 12,
      "name": "floatBufferViews",
      "target": 34962
    }
  ],
  "buffers": [
    {
      "byteLength": 80472,
      "uri": "scene.bin"
    }
  ],
  "materials": [
    {
      "doubleSided": true,
      "emissiveFactor": [
        0,
        0,
        0
      ],
      "name": "Default",
      "pbrMetallicRoughness": {
        "baseColorFactor": [
          1,
          0,
          0,
          1
        ],
        "metallicFactor": 0,
        "roughnessFactor": 0.99186711719999998
      }
    }
  ],
  "meshes": [
    {
      "name": "Empty_Mesh_Default_0",
      "primitives": [
        {
          "attributes": {
            "NORMAL": 1,
            "POSITION": 0
          },
          "indices": 2,
          "material": 0,
          "mode": 4
        }
      ]
    }
  ],
  "nodes": [
    {
      "children": [
        1
      ],
      "name": "RootNode (gltf orientation matrix)",
      "rotation": [
        -0.70710678118654746,
        -0,
        -0,
        0.70710678118654757
      ]
    },
    {
      "children": [
        2
      ],
      "name": "RootNode (model correction matrix)"
    },
    {
      "children": [
        3
      ],
      "matrix": [
        1,
        0,
        0,
        0,
        0,
        0,
        1,
        0,
        0,
        -1,
        0,
        0,
        0,
        0,
        0,
        1
      ],
      "name": "7b5ea93f8c0340b0b9f2cb5cc8d597e9.fbx"
    },
    {
      "children": [
        4
      ],
      "name": "RootNode"
    },
    {
      "children": [
        5
      ],
      "matrix": [
        -1,
        1.224646799147353e-16,
        -1.2246467991473535e-16,
        0,
        1.224646799147353e-16,
        1,
        1.224646799147353e-16,
        0,
        1.2246467991473535e-16,
        1.224646799147353e-16,
        -1,
        0,
        0,
        0,
        0,
        1
      ],
      "name": "UnityRotator"
    },
    {
      "children": [
        6
      ],
      "matrix": [
        1,
        -3.0189874454731109e-48,
        0,
        0,
        3.0189874454731109e-48,
        1,
        -1.1823114281463375e-48,
        0,
        3.569383358213177e-96,
        1.1823114281463375e-48,
        1,
        0,
        0,
        0,
        0,
        1
      ],
      "name": "Empty_Mesh"
    },
    {
      "mesh": 0,
      "name": "Empty_Mesh_Default_0"
    }
  ],
  "scene": 0,
  "scenes": [
    {
      "name": "OSG_Scene",
      "nodes": [
        0
      ]
    }
  ]
}

